<?xml version="1.0" encoding="UTF-8"?>
<svg xmlns="http://www.w3.org/2000/svg" xmlns:xlink="http://www.w3.org/1999/xlink" width="13pt" height="13pt" viewBox="0 0 13 13" version="1.1">
<g id="surface1">
<path style=" stroke:none;fill-rule:nonzero;fill:rgb(0%,0%,0%);fill-opacity:1;" d="M 13 6.648438 C 13 10.238281 10.417969 12.796875 6.605469 12.796875 C 2.953125 12.796875 0 9.984375 0 6.5 C 0 3.015625 2.953125 0.203125 6.605469 0.203125 C 8.386719 0.203125 9.882812 0.824219 11.035156 1.851562 L 9.238281 3.5 C 6.886719 1.335938 2.511719 2.960938 2.511719 6.5 C 2.511719 8.695312 4.351562 10.476562 6.605469 10.476562 C 9.222656 10.476562 10.203125 8.6875 10.355469 7.761719 L 6.605469 7.761719 L 6.605469 5.597656 L 12.894531 5.597656 C 12.957031 5.917969 13 6.226562 13 6.648438 Z M 13 6.648438 "/>
</g>
</svg>
