<?xml version="1.0" encoding="UTF-8"?>
<svg xmlns="http://www.w3.org/2000/svg" xmlns:xlink="http://www.w3.org/1999/xlink" width="20pt" height="20pt" viewBox="0 0 20 20" version="1.1">
<g id="surface1">
<path style=" stroke:none;fill-rule:nonzero;fill:rgb(100%,71.372549%,0%);fill-opacity:1;" d="M 19.84375 10 C 19.84375 13.25 17.21875 15.90625 13.9375 15.90625 C 10.6875 15.90625 8.03125 13.25 8.03125 10 C 8.03125 6.75 10.65625 4.09375 13.90625 4.09375 C 17.21875 4.09375 19.84375 6.75 19.84375 10 Z M 19.84375 10 "/>
<path style=" stroke:none;fill-rule:nonzero;fill:rgb(96.862745%,59.607843%,11.372549%);fill-opacity:1;" d="M 13.9375 4.09375 C 17.1875 4.09375 19.84375 6.75 19.84375 10 C 19.84375 13.25 17.21875 15.90625 13.9375 15.90625 C 10.6875 15.90625 8.03125 13.25 8.03125 10 "/>
<path style=" stroke:none;fill-rule:nonzero;fill:rgb(100%,52.156863%,0%);fill-opacity:1;" d="M 13.9375 4.09375 C 17.1875 4.09375 19.84375 6.75 19.84375 10 C 19.84375 13.25 17.21875 15.90625 13.9375 15.90625 "/>
<path style=" stroke:none;fill-rule:nonzero;fill:rgb(100%,31.372549%,31.372549%);fill-opacity:1;" d="M 6 4.09375 C 2.78125 4.125 0.15625 6.75 0.15625 10 C 0.15625 13.25 2.78125 15.90625 6.0625 15.90625 C 7.59375 15.90625 8.96875 15.3125 10.03125 14.375 C 10.25 14.1875 10.4375 13.96875 10.625 13.75 L 9.40625 13.75 C 9.25 13.5625 9.09375 13.34375 8.96875 13.15625 L 11.0625 13.15625 C 11.1875 12.96875 11.3125 12.75 11.40625 12.53125 L 8.625 12.53125 C 8.53125 12.34375 8.4375 12.125 8.375 11.90625 L 11.625 11.90625 C 11.8125 11.3125 11.9375 10.6875 11.9375 10.03125 C 11.9375 9.59375 11.875 9.1875 11.8125 8.78125 L 8.1875 8.78125 C 8.21875 8.5625 8.28125 8.375 8.34375 8.15625 L 11.59375 8.15625 C 11.53125 7.9375 11.4375 7.71875 11.34375 7.53125 L 8.59375 7.53125 C 8.6875 7.3125 8.8125 7.125 8.9375 6.90625 L 11.03125 6.90625 C 10.90625 6.6875 10.75 6.46875 10.5625 6.28125 L 9.40625 6.28125 C 9.59375 6.0625 9.78125 5.875 10 5.6875 C 8.96875 4.71875 7.5625 4.15625 6.03125 4.15625 C 6.03125 4.09375 6.03125 4.09375 6 4.09375 Z M 6 4.09375 "/>
<path style=" stroke:none;fill-rule:nonzero;fill:rgb(89.803922%,15.686275%,21.176471%);fill-opacity:1;" d="M 0.15625 10 C 0.15625 13.25 2.78125 15.90625 6.0625 15.90625 C 7.59375 15.90625 8.96875 15.3125 10.03125 14.375 C 10.25 14.1875 10.4375 13.96875 10.625 13.75 L 9.40625 13.75 C 9.25 13.5625 9.09375 13.34375 8.96875 13.15625 L 11.0625 13.15625 C 11.1875 12.96875 11.3125 12.75 11.40625 12.53125 L 8.625 12.53125 C 8.53125 12.34375 8.4375 12.125 8.375 11.90625 L 11.625 11.90625 C 11.8125 11.3125 11.9375 10.6875 11.9375 10.03125 C 11.9375 9.59375 11.875 9.1875 11.8125 8.78125 L 8.1875 8.78125 C 8.21875 8.5625 8.28125 8.375 8.34375 8.15625 L 11.59375 8.15625 C 11.53125 7.9375 11.4375 7.71875 11.34375 7.53125 L 8.59375 7.53125 C 8.6875 7.3125 8.8125 7.125 8.9375 6.90625 L 11.03125 6.90625 C 10.90625 6.6875 10.75 6.46875 10.5625 6.28125 L 9.40625 6.28125 C 9.59375 6.0625 9.78125 5.875 10 5.6875 C 8.96875 4.71875 7.5625 4.15625 6.03125 4.15625 C 6.03125 4.15625 6 4.15625 6 4.15625 "/>
<path style=" stroke:none;fill-rule:nonzero;fill:rgb(79.607843%,12.54902%,14.901961%);fill-opacity:1;" d="M 6.0625 15.90625 C 7.59375 15.90625 8.96875 15.3125 10.03125 14.375 C 10.25 14.1875 10.4375 13.96875 10.625 13.75 L 9.40625 13.75 C 9.25 13.5625 9.09375 13.34375 8.96875 13.15625 L 11.0625 13.15625 C 11.1875 12.96875 11.3125 12.75 11.40625 12.53125 L 8.625 12.53125 C 8.53125 12.34375 8.4375 12.125 8.375 11.90625 L 11.625 11.90625 C 11.8125 11.3125 11.9375 10.6875 11.9375 10.03125 C 11.9375 9.59375 11.875 9.1875 11.8125 8.78125 L 8.1875 8.78125 C 8.21875 8.5625 8.28125 8.375 8.34375 8.15625 L 11.59375 8.15625 C 11.53125 7.9375 11.4375 7.71875 11.34375 7.53125 L 8.59375 7.53125 C 8.6875 7.3125 8.8125 7.125 8.9375 6.90625 L 11.03125 6.90625 C 10.90625 6.6875 10.75 6.46875 10.5625 6.28125 L 9.40625 6.28125 C 9.59375 6.0625 9.78125 5.875 10 5.6875 C 8.96875 4.71875 7.5625 4.15625 6.03125 4.15625 C 6.03125 4.15625 6 4.15625 6 4.15625 "/>
<path style=" stroke:none;fill-rule:nonzero;fill:rgb(100%,100%,100%);fill-opacity:1;" d="M 8.15625 11.5 L 8.25 10.96875 C 8.21875 10.96875 8.15625 11 8.09375 11 C 7.875 11 7.84375 10.875 7.875 10.8125 L 8.0625 9.71875 L 8.40625 9.71875 L 8.5 9.125 L 8.1875 9.125 L 8.25 8.75 L 7.625 8.75 C 7.625 8.75 7.25 10.8125 7.25 11.0625 C 7.25 11.4375 7.46875 11.59375 7.75 11.59375 C 7.9375 11.59375 8.09375 11.53125 8.15625 11.5 Z M 8.375 10.5 C 8.375 11.375 8.96875 11.59375 9.46875 11.59375 C 9.9375 11.59375 10.125 11.5 10.125 11.5 L 10.25 10.90625 C 10.25 10.90625 9.90625 11.0625 9.59375 11.0625 C 8.90625 11.0625 9.03125 10.5625 9.03125 10.5625 L 10.3125 10.5625 C 10.3125 10.5625 10.40625 10.15625 10.40625 10 C 10.40625 9.59375 10.1875 9.09375 9.5 9.09375 C 8.84375 9.03125 8.375 9.71875 8.375 10.5 Z M 9.46875 9.59375 C 9.8125 9.59375 9.75 10 9.75 10.03125 L 9.0625 10.03125 C 9.0625 10 9.125 9.59375 9.46875 9.59375 Z M 13.4375 11.5 L 13.5625 10.8125 C 13.5625 10.8125 13.25 10.96875 13.03125 10.96875 C 12.59375 10.96875 12.40625 10.625 12.40625 10.25 C 12.40625 9.5 12.78125 9.09375 13.21875 9.09375 C 13.53125 9.09375 13.78125 9.28125 13.78125 9.28125 L 13.875 8.625 C 13.875 8.625 13.5 8.46875 13.15625 8.46875 C 12.4375 8.46875 11.71875 9.09375 11.71875 10.28125 C 11.71875 11.0625 12.09375 11.59375 12.84375 11.59375 C 13.09375 11.59375 13.4375 11.5 13.4375 11.5 Z M 4.71875 9.03125 C 4.28125 9.03125 3.96875 9.15625 3.96875 9.15625 L 3.875 9.6875 C 3.875 9.6875 4.15625 9.5625 4.5625 9.5625 C 4.78125 9.5625 4.96875 9.59375 4.96875 9.78125 C 4.96875 9.90625 4.9375 9.9375 4.9375 9.9375 C 4.9375 9.9375 4.75 9.9375 4.65625 9.9375 C 4.125 9.9375 3.53125 10.15625 3.53125 10.875 C 3.53125 11.4375 3.90625 11.5625 4.125 11.5625 C 4.5625 11.5625 4.75 11.28125 4.78125 11.28125 L 4.75 11.53125 L 5.3125 11.53125 L 5.5625 9.8125 C 5.5625 9.0625 4.9375 9.03125 4.71875 9.03125 Z M 4.84375 10.4375 C 4.84375 10.53125 4.78125 11.03125 4.40625 11.03125 C 4.21875 11.03125 4.15625 10.875 4.15625 10.78125 C 4.15625 10.625 4.25 10.40625 4.71875 10.40625 C 4.8125 10.4375 4.84375 10.4375 4.84375 10.4375 Z M 6.15625 11.5625 C 6.3125 11.5625 7.09375 11.59375 7.09375 10.75 C 7.09375 9.96875 6.34375 10.125 6.34375 9.8125 C 6.34375 9.65625 6.46875 9.59375 6.6875 9.59375 C 6.78125 9.59375 7.125 9.625 7.125 9.625 L 7.21875 9.0625 C 7.21875 9.0625 7 9 6.625 9 C 6.15625 9 5.6875 9.1875 5.6875 9.8125 C 5.6875 10.53125 6.46875 10.46875 6.46875 10.75 C 6.46875 10.9375 6.25 10.96875 6.09375 10.96875 C 5.8125 10.96875 5.53125 10.875 5.53125 10.875 L 5.4375 11.4375 C 5.46875 11.5 5.625 11.5625 6.15625 11.5625 Z M 18.625 8.53125 L 18.5 9.375 C 18.5 9.375 18.25 9.0625 17.90625 9.0625 C 17.34375 9.0625 16.84375 9.75 16.84375 10.5625 C 16.84375 11.0625 17.09375 11.59375 17.625 11.59375 C 18 11.59375 18.21875 11.34375 18.21875 11.34375 L 18.1875 11.5625 L 18.8125 11.5625 L 19.28125 8.5625 Z M 18.34375 10.1875 C 18.34375 10.53125 18.1875 10.96875 17.84375 10.96875 C 17.625 10.96875 17.5 10.78125 17.5 10.46875 C 17.5 9.96875 17.71875 9.65625 18 9.65625 C 18.21875 9.65625 18.34375 9.8125 18.34375 10.1875 Z M 1.3125 11.53125 L 1.6875 9.28125 L 1.75 11.53125 L 2.1875 11.53125 L 3 9.28125 L 2.65625 11.53125 L 3.3125 11.53125 L 3.8125 8.53125 L 2.78125 8.53125 L 2.15625 10.375 L 2.125 8.53125 L 1.21875 8.53125 L 0.71875 11.53125 Z M 11 11.53125 C 11.1875 10.5 11.21875 9.65625 11.65625 9.8125 C 11.71875 9.40625 11.8125 9.25 11.875 9.09375 C 11.875 9.09375 11.84375 9.09375 11.75 9.09375 C 11.46875 9.09375 11.25 9.46875 11.25 9.46875 L 11.3125 9.125 L 10.71875 9.125 L 10.3125 11.5625 L 11 11.5625 Z M 14.875 9.03125 C 14.4375 9.03125 14.125 9.15625 14.125 9.15625 L 14.03125 9.6875 C 14.03125 9.6875 14.3125 9.5625 14.71875 9.5625 C 14.9375 9.5625 15.125 9.59375 15.125 9.78125 C 15.125 9.90625 15.09375 9.9375 15.09375 9.9375 C 15.09375 9.9375 14.90625 9.9375 14.8125 9.9375 C 14.28125 9.9375 13.6875 10.15625 13.6875 10.875 C 13.6875 11.4375 14.0625 11.5625 14.28125 11.5625 C 14.71875 11.5625 14.90625 11.28125 14.9375 11.28125 L 14.90625 11.53125 L 15.46875 11.53125 L 15.71875 9.8125 C 15.75 9.0625 15.09375 9.03125 14.875 9.03125 Z M 15.03125 10.4375 C 15.03125 10.53125 14.96875 11.03125 14.59375 11.03125 C 14.40625 11.03125 14.34375 10.875 14.34375 10.78125 C 14.34375 10.625 14.4375 10.40625 14.90625 10.40625 C 15 10.4375 15 10.4375 15.03125 10.4375 Z M 16.25 11.53125 C 16.4375 10.5 16.46875 9.65625 16.90625 9.8125 C 16.96875 9.40625 17.0625 9.25 17.125 9.09375 C 17.125 9.09375 17.09375 9.09375 17 9.09375 C 16.71875 9.09375 16.5 9.46875 16.5 9.46875 L 16.5625 9.125 L 15.96875 9.125 L 15.5625 11.5625 L 16.25 11.5625 Z M 16.25 11.53125 "/>
<path style=" stroke:none;fill-rule:nonzero;fill:rgb(86.27451%,89.803922%,89.803922%);fill-opacity:1;" d="M 7.1875 11.0625 C 7.1875 11.4375 7.40625 11.59375 7.6875 11.59375 C 7.90625 11.59375 8.09375 11.53125 8.15625 11.5 L 8.25 10.96875 C 8.21875 10.96875 8.15625 11 8.09375 11 C 7.875 11 7.84375 10.875 7.875 10.8125 L 8.0625 9.71875 L 8.40625 9.71875 L 8.5 9.125 L 8.1875 9.125 L 8.25 8.75 M 8.6875 10.5 C 8.6875 11.375 8.96875 11.59375 9.46875 11.59375 C 9.9375 11.59375 10.125 11.5 10.125 11.5 L 10.25 10.90625 C 10.25 10.90625 9.90625 11.0625 9.59375 11.0625 C 8.90625 11.0625 9.03125 10.5625 9.03125 10.5625 L 10.3125 10.5625 C 10.3125 10.5625 10.40625 10.15625 10.40625 10 C 10.40625 9.59375 10.1875 9.09375 9.5 9.09375 C 8.84375 9.03125 8.6875 9.71875 8.6875 10.5 Z M 9.46875 9.59375 C 9.8125 9.59375 9.875 10 9.875 10.03125 L 9.0625 10.03125 C 9.0625 10 9.125 9.59375 9.46875 9.59375 Z M 13.4375 11.5 L 13.5625 10.8125 C 13.5625 10.8125 13.25 10.96875 13.03125 10.96875 C 12.59375 10.96875 12.40625 10.625 12.40625 10.25 C 12.40625 9.5 12.78125 9.09375 13.21875 9.09375 C 13.53125 9.09375 13.78125 9.28125 13.78125 9.28125 L 13.875 8.625 C 13.875 8.625 13.5 8.46875 13.15625 8.46875 C 12.4375 8.46875 12.03125 9.09375 12.03125 10.28125 C 12.03125 11.0625 12.09375 11.59375 12.84375 11.59375 C 13.09375 11.59375 13.4375 11.5 13.4375 11.5 Z M 3.875 9.71875 C 3.875 9.71875 4.15625 9.59375 4.5625 9.59375 C 4.78125 9.59375 4.96875 9.625 4.96875 9.8125 C 4.96875 9.9375 4.9375 9.96875 4.9375 9.96875 C 4.9375 9.96875 4.75 9.96875 4.65625 9.96875 C 4.125 9.96875 3.53125 10.1875 3.53125 10.90625 C 3.53125 11.46875 3.90625 11.59375 4.125 11.59375 C 4.5625 11.59375 4.75 11.3125 4.78125 11.3125 L 4.75 11.5625 L 5.3125 11.5625 L 5.5625 9.84375 C 5.5625 9.125 4.9375 9.09375 4.6875 9.09375 M 5.15625 10.4375 C 5.15625 10.53125 4.78125 11.03125 4.40625 11.03125 C 4.21875 11.03125 4.15625 10.875 4.15625 10.78125 C 4.15625 10.625 4.25 10.40625 4.71875 10.40625 C 4.8125 10.4375 5.15625 10.4375 5.15625 10.4375 Z M 5.46875 11.5 C 5.46875 11.5 5.65625 11.5625 6.1875 11.5625 C 6.34375 11.5625 7.125 11.59375 7.125 10.75 C 7.125 9.96875 6.375 10.125 6.375 9.8125 C 6.375 9.65625 6.5 9.59375 6.71875 9.59375 C 6.8125 9.59375 7.15625 9.625 7.15625 9.625 L 7.25 9.0625 C 7.25 9.0625 7.03125 9 6.65625 9 C 6.1875 9 6.03125 9.1875 6.03125 9.8125 C 6.03125 10.53125 6.5 10.46875 6.5 10.75 C 6.5 10.9375 6.28125 10.96875 6.125 10.96875 M 18.5 9.375 C 18.5 9.375 18.25 9.0625 17.90625 9.0625 C 17.34375 9.0625 17.15625 9.75 17.15625 10.5625 C 17.15625 11.0625 17.09375 11.59375 17.625 11.59375 C 18 11.59375 18.21875 11.34375 18.21875 11.34375 L 18.1875 11.5625 L 18.8125 11.5625 L 19.28125 8.5625 M 18.46875 10.1875 C 18.46875 10.53125 18.1875 10.96875 17.84375 10.96875 C 17.625 10.96875 17.5 10.78125 17.5 10.46875 C 17.5 9.96875 17.71875 9.65625 18 9.65625 C 18.21875 9.65625 18.46875 9.8125 18.46875 10.1875 Z M 1.3125 11.53125 L 1.6875 9.28125 L 1.75 11.53125 L 2.1875 11.53125 L 3 9.28125 L 2.65625 11.53125 L 3.3125 11.53125 L 3.8125 8.53125 L 3.03125 8.53125 L 2.15625 10.375 L 2.125 8.53125 L 1.78125 8.53125 L 0.71875 11.53125 Z M 10.34375 11.53125 L 11 11.53125 C 11.1875 10.5 11.21875 9.65625 11.65625 9.8125 C 11.71875 9.40625 11.8125 9.25 11.875 9.09375 C 11.875 9.09375 11.84375 9.09375 11.75 9.09375 C 11.46875 9.09375 11.25 9.46875 11.25 9.46875 L 11.3125 9.125 M 14.03125 9.71875 C 14.03125 9.71875 14.3125 9.59375 14.71875 9.59375 C 14.9375 9.59375 15.125 9.625 15.125 9.8125 C 15.125 9.9375 15.09375 9.96875 15.09375 9.96875 C 15.09375 9.96875 14.90625 9.96875 14.8125 9.96875 C 14.28125 9.96875 13.6875 10.1875 13.6875 10.90625 C 13.6875 11.46875 14.0625 11.59375 14.28125 11.59375 C 14.71875 11.59375 14.90625 11.3125 14.9375 11.3125 L 14.90625 11.5625 L 15.46875 11.5625 L 15.71875 9.84375 C 15.71875 9.125 15.09375 9.09375 14.84375 9.09375 M 15.3125 10.4375 C 15.3125 10.53125 14.9375 11.03125 14.5625 11.03125 C 14.375 11.03125 14.3125 10.875 14.3125 10.78125 C 14.3125 10.625 14.40625 10.40625 14.875 10.40625 C 15 10.4375 15.3125 10.4375 15.3125 10.4375 Z M 15.59375 11.53125 L 16.25 11.53125 C 16.4375 10.5 16.46875 9.65625 16.90625 9.8125 C 16.96875 9.40625 17.0625 9.25 17.125 9.09375 C 17.125 9.09375 17.09375 9.09375 17 9.09375 C 16.71875 9.09375 16.5 9.46875 16.5 9.46875 L 16.5625 9.125 "/>
</g>
</svg>
