
<svg xmlns="http://www.w3.org/2000/svg" xmlns:xlink="http://www.w3.org/1999/xlink" width="20pt" height="20pt" viewBox="0 0 20 20" version="1.1">
<g>
<path style=" stroke:none;fill-rule:nonzero;fill:rgb(7.45098%,60.392157%,83.921569%);fill-opacity:1;" d="M 15.375 8.8125 L 14.3125 8.8125 C 14.25 8.8125 14.1875 8.875 14.15625 8.9375 L 13.71875 11.6875 C 13.71875 11.75 13.75 11.78125 13.8125 11.78125 L 14.375 11.78125 C 14.4375 11.78125 14.46875 11.75 14.46875 11.6875 L 14.59375 10.90625 C 14.59375 10.84375 14.65625 10.78125 14.75 10.78125 L 15.09375 10.78125 C 15.8125 10.78125 16.21875 10.4375 16.3125 9.75 C 16.375 9.46875 16.3125 9.21875 16.1875 9.0625 C 16 8.90625 15.71875 8.8125 15.375 8.8125 M 15.5 9.84375 C 15.4375 10.21875 15.15625 10.21875 14.875 10.21875 L 14.6875 10.21875 L 14.8125 9.5 C 14.8125 9.46875 14.84375 9.4375 14.90625 9.4375 L 14.96875 9.4375 C 15.15625 9.4375 15.34375 9.4375 15.4375 9.5625 C 15.5 9.59375 15.5 9.6875 15.5 9.84375 "/>
<path style=" stroke:none;fill-rule:nonzero;fill:rgb(14.901961%,23.137255%,50.196078%);fill-opacity:1;" d="M 7.71875 8.8125 L 6.65625 8.8125 C 6.59375 8.8125 6.53125 8.875 6.5 8.9375 L 6.0625 11.6875 C 6.0625 11.75 6.09375 11.78125 6.15625 11.78125 L 6.65625 11.78125 C 6.71875 11.78125 6.78125 11.71875 6.8125 11.65625 L 6.9375 10.90625 C 6.9375 10.84375 7 10.78125 7.09375 10.78125 L 7.4375 10.78125 C 8.15625 10.78125 8.5625 10.4375 8.65625 9.75 C 8.71875 9.46875 8.65625 9.21875 8.53125 9.0625 C 8.34375 8.90625 8.09375 8.8125 7.71875 8.8125 M 7.84375 9.84375 C 7.78125 10.21875 7.5 10.21875 7.21875 10.21875 L 7.0625 10.21875 L 7.1875 9.5 C 7.1875 9.46875 7.21875 9.4375 7.28125 9.4375 L 7.34375 9.4375 C 7.53125 9.4375 7.71875 9.4375 7.8125 9.5625 C 7.84375 9.59375 7.875 9.6875 7.84375 9.84375 M 10.9375 9.8125 L 10.4375 9.8125 C 10.40625 9.8125 10.34375 9.84375 10.34375 9.875 L 10.3125 10.03125 L 10.28125 9.96875 C 10.15625 9.8125 9.9375 9.75 9.6875 9.75 C 9.125 9.75 8.625 10.1875 8.53125 10.78125 C 8.46875 11.09375 8.5625 11.375 8.71875 11.5625 C 8.875 11.75 9.09375 11.8125 9.375 11.8125 C 9.84375 11.8125 10.09375 11.53125 10.09375 11.53125 L 10.0625 11.6875 C 10.0625 11.75 10.09375 11.78125 10.15625 11.78125 L 10.625 11.78125 C 10.6875 11.78125 10.75 11.71875 10.78125 11.65625 L 11.0625 9.90625 C 11.03125 9.875 10.96875 9.8125 10.9375 9.8125 M 10.21875 10.8125 C 10.15625 11.09375 9.9375 11.3125 9.625 11.3125 C 9.46875 11.3125 9.34375 11.25 9.28125 11.1875 C 9.21875 11.09375 9.1875 10.96875 9.1875 10.8125 C 9.21875 10.53125 9.46875 10.3125 9.75 10.3125 C 9.90625 10.3125 10 10.375 10.09375 10.4375 C 10.1875 10.53125 10.21875 10.6875 10.21875 10.8125 "/>
<path style=" stroke:none;fill-rule:nonzero;fill:rgb(7.45098%,60.392157%,83.921569%);fill-opacity:1;" d="M 18.5625 9.8125 L 18.0625 9.8125 C 18.03125 9.8125 17.96875 9.84375 17.96875 9.875 L 17.9375 10.03125 L 17.90625 9.96875 C 17.78125 9.8125 17.5625 9.75 17.3125 9.75 C 16.75 9.75 16.25 10.1875 16.15625 10.78125 C 16.09375 11.09375 16.1875 11.375 16.34375 11.5625 C 16.5 11.75 16.71875 11.8125 17 11.8125 C 17.46875 11.8125 17.71875 11.53125 17.71875 11.53125 L 17.6875 11.6875 C 17.6875 11.75 17.71875 11.78125 17.78125 11.78125 L 18.25 11.78125 C 18.3125 11.78125 18.375 11.71875 18.40625 11.65625 L 18.6875 9.90625 C 18.65625 9.875 18.625 9.8125 18.5625 9.8125 M 17.84375 10.8125 C 17.78125 11.09375 17.5625 11.3125 17.25 11.3125 C 17.09375 11.3125 16.96875 11.25 16.90625 11.1875 C 16.84375 11.09375 16.8125 10.96875 16.8125 10.8125 C 16.84375 10.53125 17.09375 10.3125 17.375 10.3125 C 17.53125 10.3125 17.625 10.375 17.71875 10.4375 C 17.84375 10.53125 17.875 10.6875 17.84375 10.8125 "/>
<path style=" stroke:none;fill-rule:nonzero;fill:rgb(14.901961%,23.137255%,50.196078%);fill-opacity:1;" d="M 13.65625 9.8125 L 13.125 9.8125 C 13.0625 9.8125 13.03125 9.84375 13 9.875 L 12.3125 10.9375 L 12 9.9375 C 11.96875 9.875 11.9375 9.84375 11.84375 9.84375 L 11.34375 9.84375 C 11.28125 9.84375 11.25 9.90625 11.25 9.96875 L 11.8125 11.625 L 11.28125 12.375 C 11.25 12.4375 11.28125 12.53125 11.34375 12.53125 L 11.84375 12.53125 C 11.90625 12.53125 11.9375 12.5 11.96875 12.46875 L 13.6875 10 C 13.78125 9.90625 13.71875 9.8125 13.65625 9.8125 "/>
<path style=" stroke:none;fill-rule:nonzero;fill:rgb(7.45098%,60.392157%,83.921569%);fill-opacity:1;" d="M 19.15625 8.90625 L 18.71875 11.71875 C 18.71875 11.78125 18.75 11.8125 18.8125 11.8125 L 19.25 11.8125 C 19.3125 11.8125 19.375 11.75 19.40625 11.6875 L 19.84375 8.9375 C 19.84375 8.875 19.8125 8.84375 19.75 8.84375 L 19.25 8.84375 C 19.21875 8.8125 19.1875 8.84375 19.15625 8.90625 "/>
<path style=" stroke:none;fill-rule:nonzero;fill:rgb(14.901961%,23.137255%,50.196078%);fill-opacity:1;" d="M 3.75 7.875 C 3.53125 7.625 3.125 7.5 2.5625 7.5 L 1 7.5 C 0.90625 7.5 0.8125 7.59375 0.78125 7.6875 L 0.15625 11.78125 C 0.15625 11.875 0.21875 11.9375 0.28125 11.9375 L 1.25 11.9375 L 1.5 10.40625 L 1.5 10.46875 C 1.53125 10.375 1.625 10.28125 1.71875 10.28125 L 2.1875 10.28125 C 3.09375 10.28125 3.78125 9.90625 4 8.875 C 4 8.84375 4 8.8125 4 8.78125 C 3.96875 8.78125 3.96875 8.78125 4 8.78125 C 4.03125 8.375 3.96875 8.125 3.75 7.875 "/>
<path style=" stroke:none;fill-rule:nonzero;fill:rgb(7.45098%,60.392157%,83.921569%);fill-opacity:1;" d="M 3.96875 8.78125 C 3.96875 8.8125 3.96875 8.84375 3.96875 8.875 C 3.75 9.9375 3.0625 10.28125 2.15625 10.28125 L 1.6875 10.28125 C 1.59375 10.28125 1.5 10.375 1.46875 10.46875 L 1.15625 12.375 C 1.15625 12.4375 1.1875 12.5 1.28125 12.5 L 2.09375 12.5 C 2.1875 12.5 2.28125 12.4375 2.28125 12.34375 L 2.28125 12.3125 L 2.4375 11.34375 L 2.4375 11.28125 C 2.4375 11.1875 2.53125 11.125 2.625 11.125 L 2.75 11.125 C 3.53125 11.125 4.15625 10.8125 4.3125 9.875 C 4.375 9.5 4.34375 9.15625 4.15625 8.9375 C 4.125 8.875 4.0625 8.8125 3.96875 8.78125 "/>
<path style=" stroke:none;fill-rule:nonzero;fill:rgb(13.72549%,17.254902%,39.607843%);fill-opacity:1;" d="M 3.75 8.6875 C 3.71875 8.6875 3.6875 8.65625 3.65625 8.65625 C 3.625 8.65625 3.59375 8.65625 3.5625 8.625 C 3.4375 8.59375 3.3125 8.59375 3.15625 8.59375 L 1.9375 8.59375 C 1.90625 8.59375 1.875 8.59375 1.84375 8.625 C 1.78125 8.65625 1.75 8.71875 1.75 8.78125 L 1.5 10.40625 L 1.5 10.46875 C 1.53125 10.375 1.625 10.28125 1.71875 10.28125 L 2.1875 10.28125 C 3.09375 10.28125 3.78125 9.90625 4 8.875 C 4 8.84375 4 8.8125 4.03125 8.78125 C 3.96875 8.75 3.9375 8.71875 3.875 8.71875 C 3.78125 8.6875 3.78125 8.6875 3.75 8.6875 "/>
</g>
</svg>
