<svg width="21" height="21" xmlns="http://www.w3.org/2000/svg" xmlns:xlink="http://www.w3.org/1999/xlink" xmlns:svgjs="http://svgjs.com/svgjs" fill="#29282d"><svg xmlns="http://www.w3.org/2000/svg" width="21" height="21" viewBox="1.014 1.997 20 20"><path paint-order="stroke fill markers" fill-rule="evenodd" d="M20.892 20.697l-5.81-5.81a7.877 7.877 0 0 0 1.765-4.973c0-4.366-3.551-7.917-7.916-7.917-4.366 0-7.917 3.55-7.917 7.917 0 4.365 3.551 7.916 7.917 7.916a7.879 7.879 0 0 0 4.973-1.765l5.81 5.81a.416.416 0 0 0 .589 0l.589-.59a.416.416 0 0 0 0-.588zM8.931 16.163a6.256 6.256 0 0 1-6.25-6.25 6.257 6.257 0 0 1 6.25-6.25 6.257 6.257 0 0 1 6.25 6.25 6.257 6.257 0 0 1-6.25 6.25z"/></svg></svg>