<svg width="21" height="21" xmlns="http://www.w3.org/2000/svg" xmlns:xlink="http://www.w3.org/1999/xlink" xmlns:svgjs="http://svgjs.com/svgjs" fill="#29282d"><svg xmlns="http://www.w3.org/2000/svg" width="21" height="21" viewBox="2 1.999 20 20"><path paint-order="stroke fill markers" fill-rule="evenodd" d="M19.07 14.928a9.958 9.958 0 0 0-3.8-2.384 5.779 5.779 0 0 0 2.511-4.764A5.788 5.788 0 0 0 12 2 5.788 5.788 0 0 0 6.219 7.78c0 1.975.995 3.72 2.51 4.764a9.958 9.958 0 0 0-3.8 2.384 9.934 9.934 0 0 0-2.93 7.07h1.563c0-4.652 3.785-8.436 8.438-8.436 4.652 0 8.437 3.784 8.437 8.436H22c0-2.67-1.04-5.181-2.93-7.07zM7.782 7.78A4.223 4.223 0 0 1 12 3.561a4.223 4.223 0 0 1 4.219 4.22 4.224 4.224 0 0 1-4.22 4.218A4.224 4.224 0 0 1 7.782 7.78z"/></svg></svg>