
<svg xmlns="http://www.w3.org/2000/svg" xmlns:xlink="http://www.w3.org/1999/xlink" width="20pt" height="20pt" viewBox="0 0 20 20" version="1.1">
<g >
<path style=" stroke:none;fill-rule:nonzero;fill:rgb(23.529412%,34.509804%,74.901961%);fill-opacity:1;" d="M 7.375 12.8125 L 8.375 7.1875 L 9.9375 7.1875 L 8.96875 12.8125 Z M 7.375 12.8125 "/>
<path style=" stroke:none;fill-rule:nonzero;fill:rgb(16.078431%,21.176471%,53.333333%);fill-opacity:1;" d="M 7.375 12.8125 L 8.65625 7.1875 L 9.9375 7.1875 L 8.96875 12.8125 Z M 7.375 12.8125 "/>
<path style=" stroke:none;fill-rule:nonzero;fill:rgb(23.529412%,34.509804%,74.901961%);fill-opacity:1;" d="M 14.625 7.25 C 14.3125 7.125 13.8125 7 13.1875 7 C 11.625 7 10.5 7.78125 10.5 8.90625 C 10.5 9.75 11.28125 10.1875 11.90625 10.46875 C 12.53125 10.75 12.71875 10.9375 12.71875 11.1875 C 12.71875 11.5625 12.21875 11.75 11.78125 11.75 C 11.15625 11.75 10.8125 11.65625 10.28125 11.4375 L 10.0625 11.34375 L 9.84375 12.625 C 10.21875 12.78125 10.90625 12.9375 11.625 12.9375 C 13.28125 12.9375 14.375 12.15625 14.375 10.96875 C 14.375 10.3125 13.96875 9.8125 13.03125 9.40625 C 12.46875 9.125 12.125 8.96875 12.125 8.6875 C 12.125 8.4375 12.40625 8.1875 13.03125 8.1875 C 13.5625 8.1875 13.9375 8.28125 14.21875 8.40625 L 14.375 8.46875 Z M 14.625 7.25 "/>
<path style=" stroke:none;fill-rule:nonzero;fill:rgb(16.078431%,21.176471%,53.333333%);fill-opacity:1;" d="M 14.625 7.25 C 14.3125 7.125 13.8125 7 13.1875 7 C 11.625 7 10.78125 7.78125 10.78125 8.90625 C 10.78125 9.75 11.28125 10.1875 11.90625 10.46875 C 12.53125 10.75 12.71875 10.9375 12.71875 11.1875 C 12.71875 11.5625 12.21875 11.75 11.78125 11.75 C 11.15625 11.75 10.8125 11.65625 10.28125 11.4375 L 10.0625 11.34375 L 9.84375 12.625 C 10.21875 12.78125 10.90625 12.9375 11.625 12.9375 C 13.28125 12.9375 14.375 12.15625 14.375 10.96875 C 14.375 10.3125 13.96875 9.8125 13.03125 9.40625 C 12.46875 9.125 12.125 8.96875 12.125 8.6875 C 12.125 8.4375 12.40625 8.1875 13.03125 8.1875 C 13.5625 8.1875 13.9375 8.28125 14.21875 8.40625 L 14.375 8.46875 Z M 14.625 7.25 "/>
<path style=" stroke:none;fill-rule:nonzero;fill:rgb(23.529412%,34.509804%,74.901961%);fill-opacity:1;" d="M 17.3125 7.1875 C 16.9375 7.1875 16.65625 7.21875 16.5 7.59375 L 14.15625 12.8125 L 15.84375 12.8125 L 16.15625 11.875 L 18.15625 11.875 L 18.34375 12.8125 L 19.84375 12.8125 L 18.53125 7.1875 Z M 16.59375 10.9375 C 16.6875 10.65625 17.21875 9.28125 17.21875 9.28125 C 17.21875 9.28125 17.34375 8.9375 17.4375 8.71875 L 17.53125 9.25 C 17.53125 9.25 17.84375 10.65625 17.90625 10.96875 L 16.59375 10.96875 Z M 16.59375 10.9375 "/>
<path style=" stroke:none;fill-rule:nonzero;fill:rgb(16.078431%,21.176471%,53.333333%);fill-opacity:1;" d="M 17.6875 7.1875 C 17.3125 7.1875 17.03125 7.21875 16.875 7.59375 L 14.15625 12.8125 L 15.84375 12.8125 L 16.15625 11.875 L 18.15625 11.875 L 18.34375 12.8125 L 19.84375 12.8125 L 18.53125 7.1875 Z M 16.59375 10.9375 C 16.71875 10.625 17.21875 9.28125 17.21875 9.28125 C 17.21875 9.28125 17.34375 8.9375 17.4375 8.71875 L 17.53125 9.25 C 17.53125 9.25 17.84375 10.65625 17.90625 10.96875 L 16.59375 10.96875 Z M 16.59375 10.9375 "/>
<path style=" stroke:none;fill-rule:nonzero;fill:rgb(23.529412%,34.509804%,74.901961%);fill-opacity:1;" d="M 4.5 11.125 L 4.34375 10.3125 C 4.0625 9.375 3.15625 8.34375 2.15625 7.84375 L 3.5625 12.84375 L 5.25 12.84375 L 7.78125 7.21875 L 6.09375 7.21875 Z M 4.5 11.125 "/>
<path style=" stroke:none;fill-rule:nonzero;fill:rgb(16.078431%,21.176471%,53.333333%);fill-opacity:1;" d="M 4.5 11.125 L 4.34375 10.3125 C 4.0625 9.375 3.15625 8.34375 2.15625 7.84375 L 3.5625 12.84375 L 5.25 12.84375 L 7.78125 7.21875 L 6.40625 7.21875 Z M 4.5 11.125 "/>
<path style=" stroke:none;fill-rule:nonzero;fill:rgb(100%,73.72549%,0%);fill-opacity:1;" d="M 0.15625 7.1875 L 0.4375 7.25 C 2.4375 7.71875 3.8125 8.90625 4.34375 10.3125 L 3.78125 7.65625 C 3.6875 7.28125 3.40625 7.1875 3.0625 7.1875 Z M 0.15625 7.1875 "/>
<path style=" stroke:none;fill-rule:nonzero;fill:rgb(96.862745%,59.607843%,11.372549%);fill-opacity:1;" d="M 0.15625 7.1875 C 2.15625 7.65625 3.8125 8.875 4.34375 10.28125 L 3.8125 8.0625 C 3.71875 7.6875 3.40625 7.46875 3.0625 7.46875 Z M 0.15625 7.1875 "/>
<path style=" stroke:none;fill-rule:nonzero;fill:rgb(92.941176%,48.627451%,0%);fill-opacity:1;" d="M 0.15625 7.1875 C 2.15625 7.65625 3.8125 8.875 4.34375 10.28125 L 3.96875 9.0625 C 3.875 8.6875 3.75 8.3125 3.3125 8.15625 Z M 0.15625 7.1875 "/>
<path style=" stroke:none;fill-rule:nonzero;fill:rgb(1.960784%,7.058824%,26.666667%);fill-opacity:1;" d="M 6.0625 10.9375 L 5 9.875 L 4.5 11.0625 L 4.375 10.28125 C 4.09375 9.34375 3.1875 8.3125 2.1875 7.8125 L 3.59375 12.8125 L 5.28125 12.8125 Z M 6.0625 10.9375 "/>
<path style=" stroke:none;fill-rule:nonzero;fill:rgb(1.960784%,7.058824%,26.666667%);fill-opacity:1;" d="M 8.96875 12.8125 L 7.625 11.4375 L 7.375 12.8125 Z M 8.96875 12.8125 "/>
<path style=" stroke:none;fill-rule:nonzero;fill:rgb(1.960784%,7.058824%,26.666667%);fill-opacity:1;" d="M 12.5625 10.875 C 12.6875 11 12.75 11.09375 12.71875 11.21875 C 12.71875 11.59375 12.21875 11.78125 11.78125 11.78125 C 11.15625 11.78125 10.8125 11.6875 10.28125 11.46875 L 10.0625 11.375 L 9.84375 12.65625 C 10.21875 12.8125 10.90625 12.96875 11.625 12.96875 C 12.625 12.96875 13.4375 12.6875 13.90625 12.1875 Z M 14.375 12.8125 L 15.84375 12.8125 L 16.15625 11.875 L 18.15625 11.875 L 18.34375 12.8125 L 19.84375 12.8125 L 19.3125 10.53125 L 17.4375 8.71875 L 17.53125 9.21875 C 17.53125 9.21875 17.84375 10.625 17.90625 10.9375 L 16.59375 10.9375 C 16.71875 10.625 17.21875 9.28125 17.21875 9.28125 C 17.21875 9.28125 17.34375 8.9375 17.4375 8.71875 "/>
</g>
</svg>
